<?xml version="1.0" standalone="no"?>
<!DOCTYPE svg PUBLIC "-//W3C//DTD SVG 20010904//EN"
 "http://www.w3.org/TR/2001/REC-SVG-20010904/DTD/svg10.dtd">
<svg version="1.0" xmlns="http://www.w3.org/2000/svg"
 width="900.000000pt" height="504.000000pt" viewBox="0 0 900.000000 504.000000"
 preserveAspectRatio="xMidYMid meet">
<metadata>
Created by potrace 1.10, written by Peter Selinger 2001-2011
</metadata>
<g transform="translate(0.000000,504.000000) scale(0.100000,-0.100000)"
fill="#000000" stroke="none">
<path d="M4445 3445 c-22 -14 -47 -28 -55 -32 -8 -4 -70 -40 -137 -80 -68 -40
-126 -73 -131 -73 -16 0 -62 -63 -73 -100 -14 -45 -2 -83 39 -132 24 -28 24
-29 7 -48 -10 -11 -23 -20 -30 -20 -27 0 -85 -89 -85 -130 0 -33 37 -96 69
-119 20 -15 44 -21 80 -21 49 0 78 11 156 60 17 10 41 25 55 33 106 57 220
131 245 157 26 27 30 38 30 90 0 53 -4 63 -33 93 l-33 34 31 24 c86 64 110
110 96 182 -19 97 -138 139 -231 82z m125 -15 c5 0 22 -14 39 -31 33 -33 41
-81 21 -120 -11 -19 -60 -54 -135 -95 -51 -28 -54 -40 -11 -48 46 -9 96 -61
96 -100 0 -42 -35 -88 -93 -122 -28 -16 -76 -44 -106 -61 -31 -18 -65 -37 -76
-43 -11 -6 -33 -19 -50 -30 -104 -68 -155 -72 -201 -17 -22 26 -25 38 -21 74
5 45 27 79 62 94 45 20 120 68 123 78 2 6 -7 11 -20 11 -34 0 -87 36 -99 68
-12 30 -6 87 11 107 10 12 175 113 210 129 8 3 29 15 45 26 61 39 170 90 183
85 8 -3 17 -5 22 -5z"/>
<path d="M4280 3110 c0 -51 4 -90 10 -90 5 0 33 14 62 30 29 17 60 34 68 39
21 12 26 51 6 51 -9 0 -42 14 -73 30 -31 17 -60 30 -64 30 -5 0 -9 -40 -9 -90z"/>
</g>
</svg>
